<svg xmlns="http://www.w3.org/2000/svg" xmlns:xlink="http://www.w3.org/1999/xlink" xmlns:lucid="lucid" width="1640" height="1300"><g transform="translate(-60 -20)" lucid:page-tab-id="0_0"><path d="M0 0h1760v1360H0z" fill="#fff"/><path d="M80 46c0-3.3 2.7-6 6-6h1568c3.3 0 6 2.7 6 6v668c0 3.3-2.7 6-6 6H86c-3.3 0-6-2.7-6-6z" fill="#147eba" fill-opacity=".13"/><path d="M80 40h56v56H80V40z" stroke="#fff" stroke-opacity="0" fill="#147eba"/><path d="M123.38 62.18c-.15-.17-.34-.25-.56-.25h-5.15v-5.58c-.03-2.54-.96-4.7-2.84-6.4-1.9-1.84-4.15-2.75-6.77-2.75-2.65 0-4.9.83-6.8 2.62-1.9 1.7-2.87 3.87-2.9 6.4v5.66H93.2c-.24 0-.43.1-.58.25-.16.17-.22.34-.22.6V88c0 .43.34.8.8.8h29.6c.46 0 .8-.37.8-.8V62.73c0-.2-.06-.38-.22-.54zm-23.46-5.9c.03-2.13.8-3.88 2.37-5.3 1.6-1.5 3.52-2.2 5.73-2.2 2.22 0 4.12.75 5.7 2.25 1.54 1.4 2.32 3.2 2.32 5.32v5.58H99.9zm22.1 30.94H93.98v-23.7h28z" stroke="#fff" stroke-opacity="0" fill="#fff"/><path d="M107.2 77.3v6.25h1.6v-6.23c2.13-.4 3.62-2.2 3.63-4.35 0-2.43-1.97-4.4-4.4-4.43-2.2-.03-4.06 1.5-4.44 3.68-.42 2.4 1.2 4.68 3.6 5.1zm.82-7.15c.78 0 1.44.27 2 .82.54.56.82 1.22.8 2 .03 1.55-1.2 2.8-2.74 2.82h-.06c-1.56.1-2.92-1.06-3.04-2.62-.12-1.56 1.05-2.93 2.6-3.03.16-.02.28-.02.44 0z" stroke="#fff" stroke-opacity="0" fill="#fff"/><use xlink:href="#a" transform="matrix(1,0,0,1,151,60) translate(0 17.77777777777778)"/><use xlink:href="#b" transform="matrix(1,0,0,1,151,60) translate(123.08641975308642 17.77777777777778)"/><path d="M900 126c0-3.3 2.7-6 6-6h148c3.3 0 6 2.7 6 6v108c0 3.3-2.7 6-6 6H906c-3.3 0-6-2.7-6-6z" stroke="#5e5e5e" stroke-width="3" fill="#fff"/><use xlink:href="#c" transform="matrix(1,0,0,1,912,132) translate(19.388888888888893 26.77777777777778)"/><use xlink:href="#d" transform="matrix(1,0,0,1,912,132) translate(31.055555555555557 53.44444444444445)"/><use xlink:href="#e" transform="matrix(1,0,0,1,912,132) translate(44.01851851851852 80.11111111111111)"/><path d="M160 369.08c0-3.3 2.7-6 6-6h1426.03c3.3 0 6 2.7 6 6V394c0 3.3-2.7 6-6 6H166c-3.3 0-6-2.7-6-6z" stroke="#5e5e5e" stroke-width="3" fill-opacity="0"/><use xlink:href="#f" transform="matrix(1,0,0,1,172,375.07906014331) translate(659.4753086419754 17.777777777777764)"/><path d="M980 260v9.23m0 9.23v18.46m0 9.23v18.47m0 9.23v9.23" stroke="#5e5e5e" stroke-width="2" fill="none"/><path d="M980 244.74l4.64 14.26h-9.28zM980 358.34l-4.64-14.26h9.28z" stroke="#5e5e5e" stroke-width="2" fill="#5e5e5e"/><path d="M980 600v-10m0-10v-20m0-10v-20m0-10v-20m0-10v-20m0-10v-20m0-10v-10" stroke="#5e5e5e" stroke-width="2" fill="none"/><path d="M980 615.26L975.36 601h9.28zM980 404.74l4.64 14.26h-9.28z" stroke="#5e5e5e" stroke-width="2" fill="#5e5e5e"/><path d="M858.32 1020h-76.64c-.88 0-1.68-.76-1.68-1.7v-5.12c0-18.18 11.92-33.43 29.52-37.7.48-.1.88-.05 1.28.17 5.92 3.2 12.48 3.2 18.4 0 .4-.22.8-.26 1.2-.17 17.68 4.27 29.6 19.52 29.6 37.7v5.13c0 .94-.8 1.7-1.68 1.7zm-74.88-3.43h73.12v-3.4c.08-16.35-10.56-30.07-26.32-34.17-3.36 1.65-6.48 2.4-10.24 2.4s-6.88-.7-10.24-2.4c-15.76 4.1-26.4 17.82-26.32 34.18z" stroke="#fff" stroke-opacity="0" fill="#232f3e"/><path d="M820 981.3c-3.67 0-6.8-.78-10.03-2.56-9.95-5.58-13.5-18.2-7.93-28.17 5.58-9.95 18.17-13.5 28.1-7.93 6.72 3.76 10.56 10.33 10.56 18.05 0 7.76-3.93 14.36-10.74 18.04-3.22 1.73-6.32 2.56-9.95 2.56zm0-37.83c-6.6-.17-12.26 3.18-15.44 8.96-4.5 8.4-1.4 18.8 6.94 23.34 5.4 2.93 11.36 2.93 16.77 0 5.7-3.1 9-8.68 8.96-15.2-.04-9.5-7.76-17.14-17.22-17.1z" stroke="#fff" stroke-opacity="0" fill="#232f3e"/><use xlink:href="#g" transform="matrix(1,0,0,1,750,1029) translate(41.69753086419753 17.77777777777778)"/><path d="M1018.32 1020h-76.64c-.88 0-1.68-.76-1.68-1.7v-5.12c0-18.18 11.92-33.43 29.52-37.7.48-.1.88-.05 1.28.17 5.92 3.2 12.48 3.2 18.4 0 .4-.22.8-.26 1.2-.17 17.68 4.27 29.6 19.52 29.6 37.7v5.13c0 .94-.8 1.7-1.68 1.7zm-74.88-3.43h73.12v-3.4c.08-16.35-10.56-30.07-26.32-34.17-3.36 1.65-6.48 2.4-10.24 2.4s-6.88-.7-10.24-2.4c-15.76 4.1-26.4 17.82-26.32 34.18z" stroke="#fff" stroke-opacity="0" fill="#232f3e"/><path d="M980 981.3c-3.67 0-6.8-.78-10.03-2.56-9.95-5.58-13.5-18.2-7.93-28.17 5.58-9.95 18.17-13.5 28.1-7.93 6.72 3.76 10.56 10.33 10.56 18.05 0 7.76-3.93 14.36-10.74 18.04-3.22 1.73-6.32 2.56-9.95 2.56zm0-37.83c-6.6-.17-12.26 3.18-15.44 8.96-4.5 8.4-1.4 18.8 6.94 23.34 5.4 2.93 11.36 2.93 16.77 0 5.7-3.1 9-8.68 8.96-15.2-.04-9.5-7.76-17.14-17.22-17.1z" stroke="#fff" stroke-opacity="0" fill="#232f3e"/><use xlink:href="#g" transform="matrix(1,0,0,1,910,1029) translate(41.69753086419753 17.77777777777778)"/><path d="M1178.32 1020h-76.64c-.88 0-1.68-.76-1.68-1.7v-5.12c0-18.18 11.92-33.43 29.52-37.7.48-.1.88-.05 1.28.17 5.92 3.2 12.48 3.2 18.4 0 .4-.22.8-.26 1.2-.17 17.68 4.27 29.6 19.52 29.6 37.7v5.13c0 .94-.8 1.7-1.68 1.7zm-74.88-3.43h73.12v-3.4c.08-16.35-10.56-30.07-26.32-34.17-3.36 1.65-6.48 2.4-10.24 2.4s-6.88-.7-10.24-2.4c-15.76 4.1-26.4 17.82-26.32 34.18z" stroke="#fff" stroke-opacity="0" fill="#232f3e"/><path d="M1140 981.3c-3.67 0-6.8-.78-10.03-2.56-9.95-5.58-13.5-18.2-7.93-28.17 5.58-9.95 18.17-13.5 28.1-7.93 6.72 3.76 10.56 10.33 10.56 18.05 0 7.76-3.93 14.36-10.74 18.04-3.22 1.73-6.32 2.56-9.95 2.56zm0-37.83c-6.6-.17-12.26 3.18-15.44 8.96-4.5 8.4-1.4 18.8 6.94 23.34 5.4 2.93 11.36 2.93 16.77 0 5.7-3.1 9-8.68 8.96-15.2-.04-9.5-7.76-17.14-17.22-17.1z" stroke="#fff" stroke-opacity="0" fill="#232f3e"/><use xlink:href="#g" transform="matrix(1,0,0,1,1070,1029) translate(41.69753086419753 17.77777777777778)"/><path d="M660 566c0-3.3 2.7-6 6-6h148c3.3 0 6 2.7 6 6v108c0 3.3-2.7 6-6 6H666c-3.3 0-6-2.7-6-6z" fill="#ffffda"/><path d="M715.33 560h49.34m24.66 0H814l3.03.82 2.15 2.15.82 3.03v36m0 36v36l-.82 3.03-2.15 2.15-3.03.82h-24.67m-24.66 0h-49.34m-24.66 0H666l-3.03-.82-2.15-2.15L660 674v-36m0-36v-36l.82-3.03 2.15-2.15L666 560h24.67" stroke="#5e5e5e" stroke-width="3" fill="none"/><use xlink:href="#h" transform="matrix(1,0,0,1,671.9999999999999,572) translate(2.043209876543216 38.77777777777778)"/><use xlink:href="#i" transform="matrix(1,0,0,1,671.9999999999999,572) translate(80.93209876543209 38.77777777777778)"/><use xlink:href="#j" transform="matrix(1,0,0,1,671.9999999999999,572) translate(45.90123456790124 65.44444444444446)"/><path d="M740 540v-10m0-10v-20m0-10v-20m0-10v-20m0-10v-10" stroke="#5e5e5e" stroke-width="2" fill="none"/><path d="M740 555.26L735.36 541h9.28zM740 404.74l4.64 14.26h-9.28z" stroke="#5e5e5e" stroke-width="2" fill="#5e5e5e"/><path d="M1360 106c0-3.3 2.7-6 6-6h148c3.3 0 6 2.7 6 6v108c0 3.3-2.7 6-6 6h-148c-3.3 0-6-2.7-6-6z" stroke="#5e5e5e" stroke-width="3" fill="#fff"/><path d="M1380 126c0-3.3 2.7-6 6-6h148c3.3 0 6 2.7 6 6v108c0 3.3-2.7 6-6 6h-148c-3.3 0-6-2.7-6-6z" stroke="#5e5e5e" stroke-width="3" fill="#fff"/><path d="M1400 146c0-3.3 2.7-6 6-6h148c3.3 0 6 2.7 6 6v108c0 3.3-2.7 6-6 6h-148c-3.3 0-6-2.7-6-6z" stroke="#5e5e5e" stroke-width="3" fill="#fff"/><use xlink:href="#k" transform="matrix(1,0,0,1,1412,152) translate(-4.067901234567898 39.111111111111114)"/><use xlink:href="#l" transform="matrix(1,0,0,1,1412,152) translate(46.117283950617285 65.77777777777777)"/><path d="M80 1100h560v200H80z" stroke="#5e5e5e" stroke-width="3" fill="#fff"/><path d="M100 1106c0-3.3 2.7-6 6-6h28c3.3 0 6 2.7 6 6v48c0 3.3-2.7 6-6 6h-28c-3.3 0-6-2.7-6-6z" stroke="#000" stroke-opacity="0" stroke-width="3" fill="#fff" fill-opacity="0"/><use xlink:href="#m" transform="matrix(1,0,0,1,104.99999999999989,1105) translate(-5.339506172839506 29.444444444444443)"/><path d="M100 1236c0-3.3 2.7-6 6-6h228c3.3 0 6 2.7 6 6v28c0 3.3-2.7 6-6 6H106c-3.3 0-6-2.7-6-6z" fill="#ffffda"/><path d="M156.67 1230h50.66m25.34 0h50.66m25.34 0H334l3.03.82 2.15 2.15.82 3.03v28l-.82 3.03-2.15 2.15-3.03.82h-25.33m-25.34 0h-50.66m-25.34 0h-50.66m-25.34 0H106l-3.03-.82-2.15-2.15-.82-3.03v-28l.82-3.03 2.15-2.15 3.03-.82h25.33" stroke="#5e5e5e" stroke-width="3" fill="none"/><use xlink:href="#n" transform="matrix(1,0,0,1,111.99999999999989,1242) translate(64.88271604938271 17.77777777777778)"/><path d="M100 1166c0-3.3 2.7-6 6-6h228c3.3 0 6 2.7 6 6v29.67c0 3.3-2.7 6-6 6H106c-3.3 0-6-2.7-6-6z" stroke="#5e5e5e" stroke-width="3" fill="#fff"/><use xlink:href="#o" transform="matrix(1,0,0,1,111.99999999999989,1172) translate(75.31481481481481 17.77777777777778)"/><path d="M543.72 1178.75l-.03 2-10.13-.13.02-2zm-20.25-.27l-.03 2-20.25-.27.02-2zm-30.38-.4l-.04 2-9.28-.13v-2zm-46.75-.62v2l-3.9-.06v-2zm-14-.2l-.04 2-20.24-.26.03-2zm-30.4-.4l-.02 2-10.12-.13.03-2z" fill="#5e5e5e"/><path d="M391.86 1176.73l-.03 2h-1.02l.04-2zM558.97 1179.96l-14.33 4.44.13-9.27z" fill="#5e5e5e"/><path d="M562.2 1180l-18.57 5.76.16-12.02zm-16.54 3.04l10.07-3.13-9.98-3.38z" fill="#5e5e5e"/><use xlink:href="#p" transform="matrix(1,0,0,1,446.3486125595849,1168.0388342233773) translate(0 14.222222222222223)"/><path d="M541.2 1249.04v2l-60.08-.72v-2zm-95.54-1.14v2l-55.35-.66.03-2z" fill="#5e5e5e"/><path d="M390.36 1247.24l-.02 2h-1.03l.03-2zM556.47 1250.22l-14.32 4.47.1-9.28z" fill="#5e5e5e"/><path d="M559.7 1250.26l-18.57 5.8.14-12.03zm-16.54 3.06l10.07-3.14-10-3.38z" fill="#5e5e5e"/><use xlink:href="#q" transform="matrix(1,0,0,1,445.66357007009003,1238.444993681803) translate(0 14.222222222222223)"/><path d="M1460 600v-10m0-10v-20m0-10v-20m0-10v-20m0-10v-20m0-10v-20m0-10v-10" stroke="#5e5e5e" stroke-width="2" fill="none"/><path d="M1460 615.26l-4.64-14.26h9.28zM1460 404.74l4.64 14.26h-9.28z" stroke="#5e5e5e" stroke-width="2" fill="#5e5e5e"/><path d="M981 939.03h-2v-87.78h2zm0-109.1h-2V800h2z" fill="#5e5e5e"/><path d="M981 940.08l-.75-.07-1.25.1V939h2zM984.64 799h-9.28l4.64-14.26z" fill="#5e5e5e"/><path d="M986 800h-12l6-18.5zm-9.26-2h6.52L980 787.97zM981 854.63l.7 2.64 1.8 1.78 2.63.7h148l3.42.94 2.53 2.52.92 3.4v72.4h-2V866.9l-.7-2.65-1.8-1.77-2.63-.72h-148l-3.42-.92-2.53-2.53-.92-3.4v-3.65h2zm0-24.7h-2V800h2z" fill="#5e5e5e"/><path d="M1141 940.08l-.75-.07-1.25.1V939h2zM984.64 799h-9.28l4.64-14.26z" fill="#5e5e5e"/><path d="M986 800h-12l6-18.5zm-9.26-2h6.52L980 787.97z" fill="#5e5e5e"/><path d="M900 626c0-3.3 2.7-6 6-6h148c3.3 0 6 2.7 6 6v108c0 3.3-2.7 6-6 6H906c-3.3 0-6-2.7-6-6z" stroke="#5e5e5e" stroke-width="3" fill="#fff"/><use xlink:href="#r" transform="matrix(1,0,0,1,912,632) translate(45.839506172839506 38.77777777777778)"/><use xlink:href="#s" transform="matrix(1,0,0,1,912,632) translate(53.24691358024691 65.44444444444446)"/><path d="M920 646c0-3.3 2.7-6 6-6h148c3.3 0 6 2.7 6 6v108c0 3.3-2.7 6-6 6H926c-3.3 0-6-2.7-6-6z" stroke="#5e5e5e" stroke-width="3" fill="#fff"/><use xlink:href="#r" transform="matrix(1,0,0,1,932,652) translate(45.839506172839506 38.77777777777778)"/><use xlink:href="#s" transform="matrix(1,0,0,1,932,652) translate(53.24691358024691 65.44444444444446)"/><path d="M940 666c0-3.3 2.7-6 6-6h148c3.3 0 6 2.7 6 6v108c0 3.3-2.7 6-6 6H946c-3.3 0-6-2.7-6-6z" stroke="#5e5e5e" stroke-width="3" fill="#fff"/><use xlink:href="#r" transform="matrix(1,0,0,1,952,672) translate(45.839506172839506 38.77777777777778)"/><use xlink:href="#s" transform="matrix(1,0,0,1,952,672) translate(53.24691358024691 65.44444444444446)"/><path d="M981 854.9l-.92 3.4-2.53 2.54-3.42.92h-148l-2.64.72-1.8 1.77-.7 2.65v72.13h-2v-72.4l.92-3.4 2.53-2.54 3.42-.94h148l2.64-.7 1.8-1.8.7-2.63v-3.38h2zm0-24.98h-2V800h2z" fill="#5e5e5e"/><path d="M821 940.08l-.75-.07-1.25.1V939h2zM984.64 799h-9.28l4.64-14.26z" fill="#5e5e5e"/><path d="M986 800h-12l6-18.5zm-9.26-2h6.52L980 787.97z" fill="#5e5e5e"/><use xlink:href="#t" transform="matrix(1,0,0,1,966.1975308641976,829.9167524569801) translate(0.005000000000000782 14.222222222222223)"/><path d="M1380 626c0-3.3 2.7-6 6-6h148c3.3 0 6 2.7 6 6v108c0 3.3-2.7 6-6 6h-148c-3.3 0-6-2.7-6-6z" fill="#ffffda"/><path d="M1435.33 620h49.34m24.66 0H1534l3.03.82 2.15 2.15.82 3.03v36m0 36v36l-.82 3.03-2.15 2.15-3.03.82h-24.67m-24.66 0h-49.34m-24.66 0H1386l-3.03-.82-2.15-2.15-.82-3.03v-36m0-36v-36l.82-3.03 2.15-2.15 3.03-.82h24.67" stroke="#5e5e5e" stroke-width="3" fill="none"/><use xlink:href="#u" transform="matrix(1,0,0,1,1392,632) translate(5.160493827160494 38.77777777777778)"/><use xlink:href="#v" transform="matrix(1,0,0,1,1392,632) translate(82.81481481481481 38.77777777777778)"/><use xlink:href="#w" transform="matrix(1,0,0,1,1392,632) translate(43.4320987654321 65.44444444444446)"/><path d="M1400 646c0-3.3 2.7-6 6-6h148c3.3 0 6 2.7 6 6v108c0 3.3-2.7 6-6 6h-148c-3.3 0-6-2.7-6-6z" fill="#ffffda"/><path d="M1455.33 640h49.34m24.66 0H1554l3.03.82 2.15 2.15.82 3.03v36m0 36v36l-.82 3.03-2.15 2.15-3.03.82h-24.67m-24.66 0h-49.34m-24.66 0H1406l-3.03-.82-2.15-2.15-.82-3.03v-36m0-36v-36l.82-3.03 2.15-2.15 3.03-.82h24.67" stroke="#5e5e5e" stroke-width="3" fill="none"/><use xlink:href="#u" transform="matrix(1,0,0,1,1412,652) translate(5.160493827160494 38.77777777777778)"/><use xlink:href="#v" transform="matrix(1,0,0,1,1412,652) translate(82.81481481481481 38.77777777777778)"/><use xlink:href="#w" transform="matrix(1,0,0,1,1412,652) translate(43.4320987654321 65.44444444444446)"/><path d="M1420 666c0-3.3 2.7-6 6-6h148c3.3 0 6 2.7 6 6v108c0 3.3-2.7 6-6 6h-148c-3.3 0-6-2.7-6-6z" fill="#ffffda"/><path d="M1475.33 660h49.34m24.66 0H1574l3.03.82 2.15 2.15.82 3.03v36m0 36v36l-.82 3.03-2.15 2.15-3.03.82h-24.67m-24.66 0h-49.34m-24.66 0H1426l-3.03-.82-2.15-2.15-.82-3.03v-36m0-36v-36l.82-3.03 2.15-2.15 3.03-.82h24.67" stroke="#5e5e5e" stroke-width="3" fill="none"/><use xlink:href="#u" transform="matrix(1,0,0,1,1432,672) translate(5.160493827160494 38.77777777777778)"/><use xlink:href="#v" transform="matrix(1,0,0,1,1432,672) translate(82.81481481481481 38.77777777777778)"/><use xlink:href="#w" transform="matrix(1,0,0,1,1432,672) translate(43.4320987654321 65.44444444444446)"/><path d="M1461.33 343.08v-10.52m0-10.5v-21.03m0-10.52V280" stroke="#5e5e5e" stroke-width="2" fill="none"/><path d="M1461.33 358.34l-4.63-14.26h9.27zM1461.33 264.74l4.64 14.26h-9.27z" stroke="#5e5e5e" stroke-width="2" fill="#5e5e5e"/><path d="M1358.32 1029.25h-76.64c-.88 0-1.68-.76-1.68-1.7v-5.12c0-18.18 11.92-33.43 29.52-37.7.48-.1.88-.05 1.28.17 5.92 3.2 12.48 3.2 18.4 0 .4-.22.8-.26 1.2-.17 17.68 4.27 29.6 19.52 29.6 37.7v5.13c0 .93-.8 1.7-1.68 1.7zm-74.88-3.43h73.12v-3.4c.08-16.35-10.56-30.07-26.32-34.17-3.36 1.65-6.48 2.4-10.24 2.4s-6.88-.7-10.24-2.4c-15.76 4.1-26.4 17.82-26.32 34.18z" stroke="#fff" stroke-opacity="0" fill="#232f3e"/><path d="M1320 990.55c-3.67 0-6.8-.78-10.03-2.56-9.95-5.6-13.5-18.22-7.93-28.18 5.58-9.95 18.17-13.5 28.1-7.93 6.72 3.75 10.56 10.32 10.56 18.04 0 7.77-3.93 14.37-10.74 18.05-3.22 1.72-6.32 2.55-9.95 2.55zm0-37.83c-6.6-.17-12.26 3.18-15.44 8.96-4.5 8.4-1.4 18.8 6.94 23.34 5.4 2.93 11.36 2.93 16.77 0 5.7-3.1 9-8.68 8.96-15.2-.04-9.5-7.76-17.14-17.22-17.1z" stroke="#fff" stroke-opacity="0" fill="#232f3e"/><use xlink:href="#g" transform="matrix(1,0,0,1,1250,1038.25) translate(41.69753086419753 17.77777777777778)"/><path d="M1518.32 1029.25h-76.64c-.88 0-1.68-.76-1.68-1.7v-5.12c0-18.18 11.92-33.43 29.52-37.7.48-.1.88-.05 1.28.17 5.92 3.2 12.48 3.2 18.4 0 .4-.22.8-.26 1.2-.17 17.68 4.27 29.6 19.52 29.6 37.7v5.13c0 .93-.8 1.7-1.68 1.7zm-74.88-3.43h73.12v-3.4c.08-16.35-10.56-30.07-26.32-34.17-3.36 1.65-6.48 2.4-10.24 2.4s-6.88-.7-10.24-2.4c-15.76 4.1-26.4 17.82-26.32 34.18z" stroke="#fff" stroke-opacity="0" fill="#232f3e"/><path d="M1480 990.55c-3.67 0-6.8-.78-10.03-2.56-9.95-5.6-13.5-18.22-7.93-28.18 5.58-9.95 18.17-13.5 28.1-7.93 6.72 3.75 10.56 10.32 10.56 18.04 0 7.77-3.93 14.37-10.74 18.05-3.22 1.72-6.32 2.55-9.95 2.55zm0-37.83c-6.6-.17-12.26 3.18-15.44 8.96-4.5 8.4-1.4 18.8 6.94 23.34 5.4 2.93 11.36 2.93 16.77 0 5.7-3.1 9-8.68 8.96-15.2-.04-9.5-7.76-17.14-17.22-17.1z" stroke="#fff" stroke-opacity="0" fill="#232f3e"/><use xlink:href="#g" transform="matrix(1,0,0,1,1410,1038.25) translate(41.69753086419753 17.77777777777778)"/><path d="M1678.32 1029.25h-76.64c-.88 0-1.68-.76-1.68-1.7v-5.12c0-18.18 11.92-33.43 29.52-37.7.48-.1.88-.05 1.28.17 5.92 3.2 12.48 3.2 18.4 0 .4-.22.8-.26 1.2-.17 17.68 4.27 29.6 19.52 29.6 37.7v5.13c0 .93-.8 1.7-1.68 1.7zm-74.88-3.43h73.12v-3.4c.08-16.35-10.56-30.07-26.32-34.17-3.36 1.65-6.48 2.4-10.24 2.4s-6.88-.7-10.24-2.4c-15.76 4.1-26.4 17.82-26.32 34.18z" stroke="#fff" stroke-opacity="0" fill="#232f3e"/><path d="M1640 990.55c-3.67 0-6.8-.78-10.03-2.56-9.95-5.6-13.5-18.22-7.93-28.18 5.58-9.95 18.17-13.5 28.1-7.93 6.72 3.75 10.56 10.32 10.56 18.04 0 7.77-3.93 14.37-10.74 18.05-3.22 1.72-6.32 2.55-9.95 2.55zm0-37.83c-6.6-.17-12.26 3.18-15.44 8.96-4.5 8.4-1.4 18.8 6.94 23.34 5.4 2.93 11.36 2.93 16.77 0 5.7-3.1 9-8.68 8.96-15.2-.04-9.5-7.76-17.14-17.22-17.1z" stroke="#fff" stroke-opacity="0" fill="#232f3e"/><use xlink:href="#g" transform="matrix(1,0,0,1,1570,1038.25) translate(41.69753086419753 17.77777777777778)"/><path d="M1480 948.28V800" stroke="#5e5e5e" stroke-width="2" fill="none"/><path d="M1481 949.33l-.75-.07-1.25.1v-1.1h2z" fill="#5e5e5e"/><path d="M1480 784.74l4.64 14.26h-9.28z" stroke="#5e5e5e" stroke-width="2" fill="#5e5e5e"/><path d="M1320 948.28v-76.9c0-3.3 2.7-6 6-6h148c3.3 0 6-2.68 6-6V800" stroke="#5e5e5e" stroke-width="2" fill="none"/><path d="M1321 949.33l-.75-.07-1.25.1v-1.1h2z" fill="#5e5e5e"/><path d="M1480 784.74l4.64 14.26h-9.28z" stroke="#5e5e5e" stroke-width="2" fill="#5e5e5e"/><path d="M1640 948.28v-76.9c0-3.3-2.7-6-6-6h-148c-3.3 0-6-2.68-6-6V800" stroke="#5e5e5e" stroke-width="2" fill="none"/><path d="M1641 949.33l-.75-.07-1.25.1v-1.1h2z" fill="#5e5e5e"/><path d="M1480 784.74l4.64 14.26h-9.28z" stroke="#5e5e5e" stroke-width="2" fill="#5e5e5e"/><path d="M1130 115.33c0-3.3 2.7-6 6-6h148c3.3 0 6 2.7 6 6V234c0 3.3-2.7 6-6 6h-148c-3.3 0-6-2.7-6-6z" fill="#ffffda"/><path d="M1185.33 109.33h49.34m24.66 0H1284l3.03.82 2.15 2.16.82 3.03v39.56m0 39.54V234l-.82 3.03-2.15 2.15-3.03.82h-24.67m-24.66 0h-49.34m-24.66 0H1136l-3.03-.82-2.15-2.15-.82-3.03v-39.56m0-39.55v-39.57l.82-3.02 2.15-2.15 3.03-.82h24.67" stroke="#5e5e5e" stroke-width="3" fill="none"/><use xlink:href="#x" transform="matrix(1,0,0,1,1142,121.33333333333336) translate(26.641975308641975 17.77777777777778)"/><use xlink:href="#y" transform="matrix(1,0,0,1,1142,121.33333333333336) translate(19.388888888888893 44.44444444444444)"/><use xlink:href="#z" transform="matrix(1,0,0,1,1142,121.33333333333336) translate(31.055555555555557 71.11111111111111)"/><use xlink:href="#A" transform="matrix(1,0,0,1,1142,121.33333333333336) translate(36.611111111111114 97.77777777777777)"/><path d="M1210 260v9.23m0 9.23v18.46m0 9.23v18.47m0 9.23v9.23" stroke="#5e5e5e" stroke-width="2" fill="none"/><path d="M1210 244.74l4.64 14.26h-9.28zM1210 358.34l-4.64-14.26h9.28z" stroke="#5e5e5e" stroke-width="2" fill="#5e5e5e"/><path d="M400 646c0-3.3 2.7-6 6-6h148c3.3 0 6 2.7 6 6v108c0 3.3-2.7 6-6 6H406c-3.3 0-6-2.7-6-6z" fill="#ffffda"/><path d="M455.33 640h49.34m24.66 0H554l3.03.82 2.15 2.15.82 3.03v36m0 36v36l-.82 3.03-2.15 2.15-3.03.82h-24.67m-24.66 0h-49.34m-24.66 0H406l-3.03-.82-2.15-2.15L400 754v-36m0-36v-36l.82-3.03 2.15-2.15L406 640h24.67" stroke="#5e5e5e" stroke-width="3" fill="none"/><use xlink:href="#B" transform="matrix(1,0,0,1,411.9999999999999,652) translate(42.16666666666667 38.77777777777778)"/><use xlink:href="#C" transform="matrix(1,0,0,1,411.9999999999999,652) translate(52.660493827160494 65.44444444444446)"/><path d="M480 637.5v-10.36m0-10.35v-20.73m0-10.36V565m0-10.36v-20.7m0-10.37v-20.7m0-10.37v-20.7m0-10.37v-20.7m0-10.37V420" stroke="#5e5e5e" stroke-width="2" fill="none"/><path d="M481 638.5h-2v-1.03h2z" fill="#5e5e5e"/><path d="M480 404.74l4.64 14.26h-9.28z" stroke="#5e5e5e" stroke-width="2" fill="#5e5e5e"/><path d="M358.32 1020h-76.64c-.88 0-1.68-.76-1.68-1.7v-5.12c0-18.18 11.92-33.43 29.52-37.7.48-.1.88-.05 1.28.17 5.92 3.2 12.48 3.2 18.4 0 .4-.22.8-.26 1.2-.17 17.68 4.27 29.6 19.52 29.6 37.7v5.13c0 .94-.8 1.7-1.68 1.7zm-74.88-3.43h73.12v-3.4c.08-16.35-10.56-30.07-26.32-34.17-3.36 1.65-6.48 2.4-10.24 2.4s-6.88-.7-10.24-2.4c-15.76 4.1-26.4 17.82-26.32 34.18z" stroke="#fff" stroke-opacity="0" fill="#232f3e"/><path d="M320 981.3c-3.67 0-6.8-.78-10.03-2.56-9.95-5.58-13.5-18.2-7.93-28.17 5.58-9.95 18.17-13.5 28.1-7.93 6.72 3.76 10.56 10.33 10.56 18.05 0 7.76-3.93 14.36-10.74 18.04-3.22 1.73-6.32 2.56-9.95 2.56zm0-37.83c-6.6-.17-12.26 3.18-15.44 8.96-4.5 8.4-1.4 18.8 6.94 23.34 5.4 2.93 11.36 2.93 16.77 0 5.7-3.1 9-8.68 8.96-15.2-.04-9.5-7.76-17.14-17.22-17.1z" stroke="#fff" stroke-opacity="0" fill="#232f3e"/><use xlink:href="#D" transform="matrix(1,0,0,1,249.9999999999999,1029) translate(41.69753086419753 17.77777777777778)"/><path d="M518.32 1020h-76.64c-.88 0-1.68-.76-1.68-1.7v-5.12c0-18.18 11.92-33.43 29.52-37.7.48-.1.88-.05 1.28.17 5.92 3.2 12.48 3.2 18.4 0 .4-.22.8-.26 1.2-.17 17.68 4.27 29.6 19.52 29.6 37.7v5.13c0 .94-.8 1.7-1.68 1.7zm-74.88-3.43h73.12v-3.4c.08-16.35-10.56-30.07-26.32-34.17-3.36 1.65-6.48 2.4-10.24 2.4s-6.88-.7-10.24-2.4c-15.76 4.1-26.4 17.82-26.32 34.18z" stroke="#fff" stroke-opacity="0" fill="#232f3e"/><path d="M480 981.3c-3.67 0-6.8-.78-10.03-2.56-9.95-5.58-13.5-18.2-7.93-28.17 5.58-9.95 18.17-13.5 28.1-7.93 6.72 3.76 10.56 10.33 10.56 18.05 0 7.76-3.93 14.36-10.74 18.04-3.22 1.73-6.32 2.56-9.95 2.56zm0-37.83c-6.6-.17-12.26 3.18-15.44 8.96-4.5 8.4-1.4 18.8 6.94 23.34 5.4 2.93 11.36 2.93 16.77 0 5.7-3.1 9-8.68 8.96-15.2-.04-9.5-7.76-17.14-17.22-17.1z" stroke="#fff" stroke-opacity="0" fill="#232f3e"/><use xlink:href="#D" transform="matrix(1,0,0,1,409.9999999999999,1029) translate(41.69753086419753 17.77777777777778)"/><path d="M678.32 1020h-76.64c-.88 0-1.68-.76-1.68-1.7v-5.12c0-18.18 11.92-33.43 29.52-37.7.48-.1.88-.05 1.28.17 5.92 3.2 12.48 3.2 18.4 0 .4-.22.8-.26 1.2-.17 17.68 4.27 29.6 19.52 29.6 37.7v5.13c0 .94-.8 1.7-1.68 1.7zm-74.88-3.43h73.12v-3.4c.08-16.35-10.56-30.07-26.32-34.17-3.36 1.65-6.48 2.4-10.24 2.4s-6.88-.7-10.24-2.4c-15.76 4.1-26.4 17.82-26.32 34.18z" stroke="#fff" stroke-opacity="0" fill="#232f3e"/><path d="M640 981.3c-3.67 0-6.8-.78-10.03-2.56-9.95-5.58-13.5-18.2-7.93-28.17 5.58-9.95 18.17-13.5 28.1-7.93 6.72 3.76 10.56 10.33 10.56 18.05 0 7.76-3.93 14.36-10.74 18.04-3.22 1.73-6.32 2.56-9.95 2.56zm0-37.83c-6.6-.17-12.26 3.18-15.44 8.96-4.5 8.4-1.4 18.8 6.94 23.34 5.4 2.93 11.36 2.93 16.77 0 5.7-3.1 9-8.68 8.96-15.2-.04-9.5-7.76-17.14-17.22-17.1z" stroke="#fff" stroke-opacity="0" fill="#232f3e"/><use xlink:href="#D" transform="matrix(1,0,0,1,569.9999999999999,1029) translate(41.69753086419753 17.77777777777778)"/><path d="M480 939.03V780" stroke="#5e5e5e" stroke-width="2" fill="none"/><path d="M481 940.08l-.75-.07-1.25.1V939h2z" fill="#5e5e5e"/><path d="M480 764.74l4.64 14.26h-9.28z" stroke="#5e5e5e" stroke-width="2" fill="#5e5e5e"/><path d="M640 939.03v-82.27c0-3.3-2.7-6-6-6H486c-3.3 0-6-2.68-6-6V780" stroke="#5e5e5e" stroke-width="2" fill="none"/><path d="M641 940.08l-.75-.07-1.25.1V939h2z" fill="#5e5e5e"/><path d="M480 764.74l4.64 14.26h-9.28z" stroke="#5e5e5e" stroke-width="2" fill="#5e5e5e"/><path d="M320 939.03v-82.27c0-3.3 2.7-6 6-6h148c3.3 0 6-2.68 6-6V780" stroke="#5e5e5e" stroke-width="2" fill="none"/><path d="M321 940.08l-.75-.07-1.25.1V939h2z" fill="#5e5e5e"/><path d="M480 764.74l4.64 14.26h-9.28z" stroke="#5e5e5e" stroke-width="2" fill="#5e5e5e"/><path d="M660 126c0-3.3 2.7-6 6-6h148c3.3 0 6 2.7 6 6v108c0 3.3-2.7 6-6 6H666c-3.3 0-6-2.7-6-6z" fill="#ffffda"/><path d="M715.33 120h49.34m24.66 0H814l3.03.82 2.15 2.15.82 3.03v36m0 36v36l-.82 3.03-2.15 2.15-3.03.82h-24.67m-24.66 0h-49.34m-24.66 0H666l-3.03-.82-2.15-2.15L660 234v-36m0-36v-36l.82-3.03 2.15-2.15L666 120h24.67" stroke="#5e5e5e" stroke-width="3" fill="none"/><g><use xlink:href="#E" transform="matrix(1,0,0,1,671.9999999999999,132) translate(20.499999999999993 38.77777777777778)"/><use xlink:href="#F" transform="matrix(1,0,0,1,671.9999999999999,132) translate(53.24691358024691 65.44444444444446)"/></g><path d="M740 260v13.85m0 13.84V315.38m0 13.83v13.85" stroke="#5e5e5e" stroke-width="2" fill="none"/><path d="M740 244.74l4.64 14.26h-9.28zM740 358.34l-4.64-14.26h9.28z" stroke="#5e5e5e" stroke-width="2" fill="#5e5e5e"/><path d="M540 228c0 6.63-26.86 12-60 12s-60-5.37-60-12v-96c0-6.63 26.86-12 60-12s60 5.37 60 12z" fill="#ffffda"/><path d="M501 239.2l-.96.1-20.04.7-21-.84m-20.8-2.64l-5.46-1.13L428 234l-2.7-1.06-1.66-.8-1.07-.65-.72-.53-.5-.44-.38-.37-.27-.33-.2-.3-.16-.25-.12-.24-.1-.23-.05-.2-.04-.22-.02-.2V212m0-16v-32m0-16v-16.2l.03-.2.05-.22.07-.22.1-.23.1-.25.17-.27.2-.28.3-.33.38-.4.54-.44.77-.53 1.14-.67 1.78-.84 2.94-1.1 5.17-1.46 4.46-.87m20.8-2.7l.96-.1L480 120l21 .84m20.8 2.64l5.46 1.13L532 126l2.7 1.06 1.66.8 1.07.65.72.53.5.44.38.37.27.33.2.3.16.25.12.24.1.23.05.2.04.22.02.2V148m0 16v32m0 16v16.2l-.03.2-.05.22-.07.22-.1.23-.1.25-.17.27-.2.28-.3.33-.38.4-.54.44-.77.53-1.14.67-1.78.84-2.94 1.1-5.17 1.46-4.46.87" stroke="#5e5e5e" stroke-width="3" fill="none"/><path d="M540 132c0 6.63-26.86 12-60 12s-60-5.37-60-12" fill="none"/><path d="M540 132v.2l-.03.2-.05.22-.07.22-.1.23-.1.25-.17.27-.2.28-.3.33-.38.4-.54.44-.77.53-1.14.67-1.78.84-2.94 1.1-5.17 1.46-4.46.87m-20.8 2.7l-.96.1-20.04.7-21-.84m-20.8-2.64l-5.46-1.13L428 138l-2.7-1.06-1.66-.8-1.07-.65-.72-.53-.5-.44-.38-.37-.27-.33-.2-.3-.16-.25-.12-.24-.1-.23-.05-.2-.04-.22-.02-.2V132" stroke="#5e5e5e" stroke-width="3" fill="none"/><g><use xlink:href="#G" transform="matrix(1,0,0,1,425,149) translate(10.14814814814816 47.38194444444444)"/></g><path d="M657.5 180H560" stroke="#5e5e5e" stroke-width="2" fill="none"/><path d="M658.5 181h-1.03v-2h1.03z" fill="#5e5e5e"/><path d="M544.74 180l14.26-4.64v9.28z" stroke="#5e5e5e" stroke-width="2" fill="#5e5e5e"/><defs><path fill="#333" d="M230 0l2-204L168 0h-37L68-204 70 0H24v-248h70l56 185 57-185h69V0h-46" id="H"/><path fill="#333" d="M133-34C117-15 103 5 69 4 32 3 11-16 11-54c-1-60 55-63 116-61 1-26-3-47-28-47-18 1-26 9-28 27l-52-2c7-38 36-58 82-57s74 22 75 68l1 82c-1 14 12 18 25 15v27c-30 8-71 5-69-32zm-48 3c29 0 43-24 42-57-32 0-66-3-65 30 0 17 8 27 23 27" id="I"/><path fill="#333" d="M115-3C79 11 28 4 28-45v-112H4v-33h27l15-45h31v45h36v33H77v99c-1 23 16 31 38 25v30" id="J"/><path fill="#333" d="M190-63c-7 42-38 67-86 67-59 0-84-38-90-98-12-110 154-137 174-36l-49 2c-2-19-15-32-35-32-30 0-35 28-38 64-6 74 65 87 74 30" id="K"/><path fill="#333" d="M114-157C55-157 80-60 75 0H25v-261h50l-1 109c12-26 28-41 61-42 86-1 58 113 63 194h-50c-7-57 23-157-34-157" id="L"/><path fill="#333" d="M135-194c52 0 70 43 70 98 0 56-19 99-73 100-30 1-46-15-58-35L72 0H24l1-261h50v104c11-23 29-37 60-37zM114-30c31 0 40-27 40-66 0-37-7-63-39-63s-41 28-41 65c0 36 8 64 40 64" id="M"/><path fill="#333" d="M110-194c64 0 96 36 96 99 0 64-35 99-97 99-61 0-95-36-95-99 0-62 34-99 96-99zm-1 164c35 0 45-28 45-65 0-40-10-65-43-65-34 0-45 26-45 65 0 36 10 65 43 65" id="N"/><path fill="#333" d="M147 0L96-86 75-71V0H25v-261h50v150l67-79h53l-66 74L201 0h-54" id="O"/><g id="a"><use transform="matrix(0.06172839506172839,0,0,0.06172839506172839,0,0)" xlink:href="#H"/><use transform="matrix(0.06172839506172839,0,0,0.06172839506172839,18.456790123456788,0)" xlink:href="#I"/><use transform="matrix(0.06172839506172839,0,0,0.06172839506172839,30.80246913580247,0)" xlink:href="#J"/><use transform="matrix(0.06172839506172839,0,0,0.06172839506172839,38.148148148148145,0)" xlink:href="#K"/><use transform="matrix(0.06172839506172839,0,0,0.06172839506172839,50.49382716049382,0)" xlink:href="#L"/><use transform="matrix(0.06172839506172839,0,0,0.06172839506172839,64.01234567901234,0)" xlink:href="#M"/><use transform="matrix(0.06172839506172839,0,0,0.06172839506172839,77.53086419753086,0)" xlink:href="#N"/><use transform="matrix(0.06172839506172839,0,0,0.06172839506172839,91.04938271604938,0)" xlink:href="#N"/><use transform="matrix(0.06172839506172839,0,0,0.06172839506172839,104.5679012345679,0)" xlink:href="#O"/></g><path fill="#333" d="M175 0L67-191c6 58 2 128 3 191H24v-248h59L193-55c-6-58-2-129-3-193h46V0h-61" id="P"/><path fill="#333" d="M185-48c-13 30-37 53-82 52C43 2 14-33 14-96s30-98 90-98c62 0 83 45 84 108H66c0 31 8 55 39 56 18 0 30-7 34-22zm-45-69c5-46-57-63-70-21-2 6-4 13-4 21h74" id="Q"/><path fill="#333" d="M231 0h-52l-39-155L100 0H48L-1-190h46L77-45c9-52 24-97 36-145h53l37 145 32-145h46" id="R"/><path fill="#333" d="M135-150c-39-12-60 13-60 57V0H25l-1-190h47c2 13-1 29 3 40 6-28 27-53 61-41v41" id="S"/><g id="b"><use transform="matrix(0.06172839506172839,0,0,0.06172839506172839,0,0)" xlink:href="#P"/><use transform="matrix(0.06172839506172839,0,0,0.06172839506172839,15.987654320987653,0)" xlink:href="#Q"/><use transform="matrix(0.06172839506172839,0,0,0.06172839506172839,28.333333333333332,0)" xlink:href="#J"/><use transform="matrix(0.06172839506172839,0,0,0.06172839506172839,35.67901234567901,0)" xlink:href="#R"/><use transform="matrix(0.06172839506172839,0,0,0.06172839506172839,52.96296296296296,0)" xlink:href="#N"/><use transform="matrix(0.06172839506172839,0,0,0.06172839506172839,66.48148148148148,0)" xlink:href="#S"/><use transform="matrix(0.06172839506172839,0,0,0.06172839506172839,75.12345679012346,0)" xlink:href="#O"/></g><path fill="#333" d="M25-224v-37h50v37H25zM25 0v-190h50V0H25" id="T"/><path fill="#333" d="M135-194c87-1 58 113 63 194h-50c-7-57 23-157-34-157-59 0-34 97-39 157H25l-1-190h47c2 12-1 28 3 38 12-26 28-41 61-42" id="U"/><path fill="#333" d="M195-6C206 82 75 100 31 46c-4-6-6-13-8-21l49-6c3 16 16 24 34 25 40 0 42-37 40-79-11 22-30 35-61 35-53 0-70-43-70-97 0-56 18-96 73-97 30 0 46 14 59 34l2-30h47zm-90-29c32 0 41-27 41-63 0-35-9-62-40-62-32 0-39 29-40 63 0 36 9 62 39 62" id="V"/><g id="c"><use transform="matrix(0.06172839506172839,0,0,0.06172839506172839,0,0)" xlink:href="#H"/><use transform="matrix(0.06172839506172839,0,0,0.06172839506172839,18.456790123456788,0)" xlink:href="#I"/><use transform="matrix(0.06172839506172839,0,0,0.06172839506172839,30.80246913580247,0)" xlink:href="#J"/><use transform="matrix(0.06172839506172839,0,0,0.06172839506172839,38.148148148148145,0)" xlink:href="#K"/><use transform="matrix(0.06172839506172839,0,0,0.06172839506172839,50.49382716049382,0)" xlink:href="#L"/><use transform="matrix(0.06172839506172839,0,0,0.06172839506172839,64.01234567901234,0)" xlink:href="#T"/><use transform="matrix(0.06172839506172839,0,0,0.06172839506172839,70.18518518518518,0)" xlink:href="#U"/><use transform="matrix(0.06172839506172839,0,0,0.06172839506172839,83.7037037037037,0)" xlink:href="#V"/></g><path fill="#333" d="M24 0v-248h195v40H76v63h132v40H76v65h150V0H24" id="W"/><g id="d"><use transform="matrix(0.06172839506172839,0,0,0.06172839506172839,0,0)" xlink:href="#W"/><use transform="matrix(0.06172839506172839,0,0,0.06172839506172839,14.814814814814813,0)" xlink:href="#U"/><use transform="matrix(0.06172839506172839,0,0,0.06172839506172839,28.33333333333333,0)" xlink:href="#V"/><use transform="matrix(0.06172839506172839,0,0,0.06172839506172839,41.85185185185185,0)" xlink:href="#T"/><use transform="matrix(0.06172839506172839,0,0,0.06172839506172839,48.02469135802469,0)" xlink:href="#U"/><use transform="matrix(0.06172839506172839,0,0,0.06172839506172839,61.54320987654321,0)" xlink:href="#Q"/></g><path fill="#333" d="M87 75C49 33 22-17 22-94c0-76 28-126 65-167h31c-38 41-64 92-64 168S80 34 118 75H87" id="X"/><path fill="#333" d="M240 0l2-218c-23 76-54 145-80 218h-23L58-218 59 0H30v-248h44l77 211c21-75 51-140 76-211h43V0h-30" id="Y"/><path fill="#333" d="M30 0v-248h187v28H63v79h144v27H63v87h162V0H30" id="Z"/><path fill="#333" d="M33-261c38 41 65 92 65 168S71 34 33 75H2C39 34 66-17 66-93S39-220 2-261h31" id="aa"/><g id="e"><use transform="matrix(0.06172839506172839,0,0,0.06172839506172839,0,0)" xlink:href="#X"/><use transform="matrix(0.06172839506172839,0,0,0.06172839506172839,7.345679012345679,0)" xlink:href="#Y"/><use transform="matrix(0.06172839506172839,0,0,0.06172839506172839,25.80246913580247,0)" xlink:href="#Z"/><use transform="matrix(0.06172839506172839,0,0,0.06172839506172839,40.61728395061728,0)" xlink:href="#aa"/></g><path fill="#333" d="M85 4C-2 5 27-109 22-190h50c7 57-23 150 33 157 60-5 35-97 40-157h50l1 190h-47c-2-12 1-28-3-38-12 25-28 42-61 42" id="ab"/><path fill="#333" d="M25 0v-261h50V0H25" id="ac"/><path fill="#333" d="M137-138c1-29-70-34-71-4 15 46 118 7 119 86 1 83-164 76-172 9l43-7c4 19 20 25 44 25 33 8 57-30 24-41C81-84 22-81 20-136c-2-80 154-74 161-7" id="ad"/><g id="f"><use transform="matrix(0.06172839506172834,0,0,0.06172839506172834,0,0)" xlink:href="#H"/><use transform="matrix(0.06172839506172834,0,0,0.06172839506172834,18.456790123456774,0)" xlink:href="#ab"/><use transform="matrix(0.06172839506172834,0,0,0.06172839506172834,31.975308641975282,0)" xlink:href="#ac"/><use transform="matrix(0.06172839506172834,0,0,0.06172839506172834,38.14814814814812,0)" xlink:href="#J"/><use transform="matrix(0.06172839506172834,0,0,0.06172839506172834,45.49382716049379,0)" xlink:href="#T"/><use transform="matrix(0.06172839506172834,0,0,0.06172839506172834,51.66666666666662,0)" xlink:href="#K"/><use transform="matrix(0.06172839506172834,0,0,0.06172839506172834,64.01234567901228,0)" xlink:href="#I"/><use transform="matrix(0.06172839506172834,0,0,0.06172839506172834,76.35802469135795,0)" xlink:href="#ad"/><use transform="matrix(0.06172839506172834,0,0,0.06172839506172834,88.70370370370362,0)" xlink:href="#J"/></g><path fill="#333" d="M212-179c-10-28-35-45-73-45-59 0-87 40-87 99 0 60 29 101 89 101 43 0 62-24 78-52l27 14C228-24 195 4 139 4 59 4 22-46 18-125c-6-104 99-153 187-111 19 9 31 26 39 46" id="ae"/><path fill="#333" d="M24 0v-261h32V0H24" id="af"/><path fill="#333" d="M24-231v-30h32v30H24zM24 0v-190h32V0H24" id="ag"/><path fill="#333" d="M100-194c63 0 86 42 84 106H49c0 40 14 67 53 68 26 1 43-12 49-29l28 8c-11 28-37 45-77 45C44 4 14-33 15-96c1-61 26-98 85-98zm52 81c6-60-76-77-97-28-3 7-6 17-6 28h103" id="ah"/><path fill="#333" d="M117-194c89-4 53 116 60 194h-32v-121c0-31-8-49-39-48C34-167 62-67 57 0H25l-1-190h30c1 10-1 24 2 32 11-22 29-35 61-36" id="ai"/><path fill="#333" d="M59-47c-2 24 18 29 38 22v24C64 9 27 4 27-40v-127H5v-23h24l9-43h21v43h35v23H59v120" id="aj"/><g id="g"><use transform="matrix(0.06172839506172839,0,0,0.06172839506172839,0,0)" xlink:href="#ae"/><use transform="matrix(0.06172839506172839,0,0,0.06172839506172839,15.987654320987653,0)" xlink:href="#af"/><use transform="matrix(0.06172839506172839,0,0,0.06172839506172839,20.864197530864196,0)" xlink:href="#ag"/><use transform="matrix(0.06172839506172839,0,0,0.06172839506172839,25.74074074074074,0)" xlink:href="#ah"/><use transform="matrix(0.06172839506172839,0,0,0.06172839506172839,38.08641975308642,0)" xlink:href="#ai"/><use transform="matrix(0.06172839506172839,0,0,0.06172839506172839,50.432098765432094,0)" xlink:href="#aj"/></g><path fill="#333" d="M67-125c0 53 21 87 73 88 37 1 54-22 65-47l45 17C233-25 199 4 140 4 58 4 20-42 15-125 8-235 124-281 211-232c18 10 29 29 36 50l-46 12c-8-25-30-41-62-41-52 0-71 34-72 86" id="ak"/><g id="h"><use transform="matrix(0.06172839506172839,0,0,0.06172839506172839,0,0)" xlink:href="#ak"/><use transform="matrix(0.06172839506172839,0,0,0.06172839506172839,15.987654320987653,0)" xlink:href="#I"/><use transform="matrix(0.06172839506172839,0,0,0.06172839506172839,28.333333333333332,0)" xlink:href="#U"/><use transform="matrix(0.06172839506172839,0,0,0.06172839506172839,41.85185185185185,0)" xlink:href="#K"/><use transform="matrix(0.06172839506172839,0,0,0.06172839506172839,54.197530864197525,0)" xlink:href="#Q"/><use transform="matrix(0.06172839506172839,0,0,0.06172839506172839,66.5432098765432,0)" xlink:href="#ac"/></g><path fill="#333" d="M76-208v77h127v40H76V0H24v-248h183v40H76" id="al"/><path fill="#333" d="M123 10C108 53 80 86 19 72V37c35 8 53-11 59-39L3-190h52l48 148c12-52 28-100 44-148h51" id="am"/><g id="i"><use transform="matrix(0.06172839506172839,0,0,0.06172839506172839,0,0)" xlink:href="#al"/><use transform="matrix(0.06172839506172839,0,0,0.06172839506172839,13.518518518518517,0)" xlink:href="#I"/><use transform="matrix(0.06172839506172839,0,0,0.06172839506172839,25.864197530864196,0)" xlink:href="#T"/><use transform="matrix(0.06172839506172839,0,0,0.06172839506172839,32.03703703703704,0)" xlink:href="#S"/><use transform="matrix(0.06172839506172839,0,0,0.06172839506172839,40.67901234567901,0)" xlink:href="#am"/></g><path fill="#333" d="M63-220v92h138v28H63V0H30v-248h175v28H63" id="an"/><g id="j"><use transform="matrix(0.06172839506172839,0,0,0.06172839506172839,0,0)" xlink:href="#X"/><use transform="matrix(0.06172839506172839,0,0,0.06172839506172839,7.345679012345679,0)" xlink:href="#ae"/><use transform="matrix(0.06172839506172839,0,0,0.06172839506172839,23.333333333333332,0)" xlink:href="#an"/><use transform="matrix(0.06172839506172839,0,0,0.06172839506172839,36.85185185185185,0)" xlink:href="#aa"/></g><path fill="#333" d="M240-174c0 40-23 61-54 70L253 0h-59l-57-94H76V0H24v-248c93 4 217-23 216 74zM76-134c48-2 112 12 112-38 0-48-66-32-112-35v73" id="ao"/><path fill="#333" d="M220-157c-53 9-28 100-34 157h-49v-107c1-27-5-49-29-50C55-147 81-57 75 0H25l-1-190h47c2 12-1 28 3 38 10-53 101-56 108 0 13-22 24-43 59-42 82 1 51 116 57 194h-49v-107c-1-25-5-48-29-50" id="ap"/><g id="k"><use transform="matrix(0.06172839506172839,0,0,0.06172839506172839,0,0)" xlink:href="#ao"/><use transform="matrix(0.06172839506172839,0,0,0.06172839506172839,15.987654320987653,0)" xlink:href="#Q"/><use transform="matrix(0.06172839506172839,0,0,0.06172839506172839,28.333333333333332,0)" xlink:href="#J"/><use transform="matrix(0.06172839506172839,0,0,0.06172839506172839,35.67901234567901,0)" xlink:href="#S"/><use transform="matrix(0.06172839506172839,0,0,0.06172839506172839,44.32098765432099,0)" xlink:href="#I"/><use transform="matrix(0.06172839506172839,0,0,0.06172839506172839,56.666666666666664,0)" xlink:href="#U"/><use transform="matrix(0.06172839506172839,0,0,0.06172839506172839,70.18518518518518,0)" xlink:href="#ad"/><use transform="matrix(0.06172839506172839,0,0,0.06172839506172839,82.53086419753086,0)" xlink:href="#ap"/><use transform="matrix(0.06172839506172839,0,0,0.06172839506172839,102.28395061728395,0)" xlink:href="#T"/><use transform="matrix(0.06172839506172839,0,0,0.06172839506172839,108.45679012345678,0)" xlink:href="#J"/><use transform="matrix(0.06172839506172839,0,0,0.06172839506172839,115.80246913580247,0)" xlink:href="#J"/><use transform="matrix(0.06172839506172839,0,0,0.06172839506172839,123.14814814814815,0)" xlink:href="#Q"/><use transform="matrix(0.06172839506172839,0,0,0.06172839506172839,135.49382716049382,0)" xlink:href="#S"/></g><path fill="#333" d="M233-177c-1 41-23 64-60 70L243 0h-38l-65-103H63V0H30v-248c88 3 205-21 203 71zM63-129c60-2 137 13 137-47 0-61-80-42-137-45v92" id="aq"/><path fill="#333" d="M127-220V0H93v-220H8v-28h204v28h-85" id="ar"/><g id="l"><use transform="matrix(0.06172839506172839,0,0,0.06172839506172839,0,0)" xlink:href="#X"/><use transform="matrix(0.06172839506172839,0,0,0.06172839506172839,7.345679012345679,0)" xlink:href="#aq"/><use transform="matrix(0.06172839506172839,0,0,0.06172839506172839,22.901234567901234,0)" xlink:href="#ar"/><use transform="matrix(0.06172839506172839,0,0,0.06172839506172839,36.41975308641975,0)" xlink:href="#aa"/></g><path fill="#333" d="M195 0l-88-114-31 24V0H24v-248h52v113l112-113h60L142-143 257 0h-62" id="as"/><g id="m"><use transform="matrix(0.06172839506172839,0,0,0.06172839506172839,0,0)" xlink:href="#as"/><use transform="matrix(0.06172839506172839,0,0,0.06172839506172839,15.987654320987653,0)" xlink:href="#Q"/><use transform="matrix(0.06172839506172839,0,0,0.06172839506172839,28.333333333333332,0)" xlink:href="#am"/></g><path fill="#333" d="M24-248c93 1 206-16 204 79-1 75-69 88-152 82V0H24v-248zm52 121c47 0 100 7 100-41 0-47-54-39-100-39v80" id="at"/><path fill="#333" d="M88-194c31-1 46 15 58 34l-1-101h50l1 261h-48c-2-10 0-23-3-31C134-8 116 4 84 4 32 4 16-41 15-95c0-56 19-97 73-99zm17 164c33 0 40-30 41-66 1-37-9-64-41-64s-38 30-39 65c0 43 13 65 39 65" id="au"/><g id="n"><use transform="matrix(0.06172839506172839,0,0,0.06172839506172839,0,0)" xlink:href="#at"/><use transform="matrix(0.06172839506172839,0,0,0.06172839506172839,14.814814814814813,0)" xlink:href="#ac"/><use transform="matrix(0.06172839506172839,0,0,0.06172839506172839,20.98765432098765,0)" xlink:href="#I"/><use transform="matrix(0.06172839506172839,0,0,0.06172839506172839,33.33333333333333,0)" xlink:href="#U"/><use transform="matrix(0.06172839506172839,0,0,0.06172839506172839,46.85185185185185,0)" xlink:href="#U"/><use transform="matrix(0.06172839506172839,0,0,0.06172839506172839,60.37037037037037,0)" xlink:href="#Q"/><use transform="matrix(0.06172839506172839,0,0,0.06172839506172839,72.71604938271605,0)" xlink:href="#au"/></g><path fill="#333" d="M144 0l-44-69L55 0H2l70-98-66-92h53l41 62 40-62h54l-67 91 71 99h-54" id="av"/><g id="o"><use transform="matrix(0.06172839506172839,0,0,0.06172839506172839,0,0)" xlink:href="#W"/><use transform="matrix(0.06172839506172839,0,0,0.06172839506172839,14.814814814814813,0)" xlink:href="#av"/><use transform="matrix(0.06172839506172839,0,0,0.06172839506172839,27.160493827160494,0)" xlink:href="#T"/><use transform="matrix(0.06172839506172839,0,0,0.06172839506172839,33.333333333333336,0)" xlink:href="#ad"/><use transform="matrix(0.06172839506172839,0,0,0.06172839506172839,45.67901234567901,0)" xlink:href="#J"/><use transform="matrix(0.06172839506172839,0,0,0.06172839506172839,53.02469135802469,0)" xlink:href="#ad"/></g><path fill="#333" d="M238-95c0 69-44 99-111 99C63 4 22-25 22-93v-155h51v151c-1 38 19 59 55 60 90 1 49-130 58-211h52v153" id="aw"/><path fill="#333" d="M24-248c120-7 223 5 221 122C244-46 201 0 124 0H24v-248zM76-40c74 7 117-18 117-86 0-67-45-88-117-82v168" id="ax"/><g id="p"><use transform="matrix(0.04938271604938272,0,0,0.04938271604938272,0,0)" xlink:href="#aw"/><use transform="matrix(0.04938271604938272,0,0,0.04938271604938272,12.790123456790125,0)" xlink:href="#ax"/><use transform="matrix(0.04938271604938272,0,0,0.04938271604938272,25.58024691358025,0)" xlink:href="#at"/></g><path fill="#333" d="M136-208V0H84v-208H4v-40h212v40h-80" id="ay"/><g id="q"><use transform="matrix(0.04938271604938272,0,0,0.04938271604938272,0,0)" xlink:href="#ay"/><use transform="matrix(0.04938271604938272,0,0,0.04938271604938272,10.814814814814815,0)" xlink:href="#ak"/><use transform="matrix(0.04938271604938272,0,0,0.04938271604938272,23.60493827160494,0)" xlink:href="#at"/></g><g id="r"><use transform="matrix(0.06172839506172839,0,0,0.06172839506172839,0,0)" xlink:href="#at"/><use transform="matrix(0.06172839506172839,0,0,0.06172839506172839,14.814814814814813,0)" xlink:href="#N"/><use transform="matrix(0.06172839506172839,0,0,0.06172839506172839,28.33333333333333,0)" xlink:href="#S"/><use transform="matrix(0.06172839506172839,0,0,0.06172839506172839,36.9753086419753,0)" xlink:href="#J"/></g><path fill="#333" d="M30-248c87 1 191-15 191 75 0 78-77 80-158 76V0H30v-248zm33 125c57 0 124 11 124-50 0-59-68-47-124-48v98" id="az"/><g id="s"><use transform="matrix(0.06172839506172839,0,0,0.06172839506172839,0,0)" xlink:href="#X"/><use transform="matrix(0.06172839506172839,0,0,0.06172839506172839,7.345679012345679,0)" xlink:href="#az"/><use transform="matrix(0.06172839506172839,0,0,0.06172839506172839,22.160493827160494,0)" xlink:href="#aa"/></g><path fill="#333" d="M24 0v-248h52V0H24" id="aA"/><path fill="#333" d="M182 0l-62-99L58 0H3l86-130-79-118h55l55 88 55-88h55l-75 118L237 0h-55" id="aB"/><g id="t"><use transform="matrix(0.04938271604938272,0,0,0.04938271604938272,0,0)" xlink:href="#al"/><use transform="matrix(0.04938271604938272,0,0,0.04938271604938272,10.814814814814815,0)" xlink:href="#aA"/><use transform="matrix(0.04938271604938272,0,0,0.04938271604938272,15.753086419753087,0)" xlink:href="#aB"/></g><g id="u"><use transform="matrix(0.06172839506172839,0,0,0.06172839506172839,0,0)" xlink:href="#H"/><use transform="matrix(0.06172839506172839,0,0,0.06172839506172839,18.456790123456788,0)" xlink:href="#I"/><use transform="matrix(0.06172839506172839,0,0,0.06172839506172839,30.80246913580247,0)" xlink:href="#S"/><use transform="matrix(0.06172839506172839,0,0,0.06172839506172839,39.44444444444444,0)" xlink:href="#O"/><use transform="matrix(0.06172839506172839,0,0,0.06172839506172839,51.79012345679012,0)" xlink:href="#Q"/><use transform="matrix(0.06172839506172839,0,0,0.06172839506172839,64.1358024691358,0)" xlink:href="#J"/></g><g id="v"><use transform="matrix(0.06172839506172839,0,0,0.06172839506172839,0,0)" xlink:href="#ax"/><use transform="matrix(0.06172839506172839,0,0,0.06172839506172839,15.987654320987653,0)" xlink:href="#I"/><use transform="matrix(0.06172839506172839,0,0,0.06172839506172839,28.333333333333332,0)" xlink:href="#J"/><use transform="matrix(0.06172839506172839,0,0,0.06172839506172839,35.67901234567901,0)" xlink:href="#I"/></g><path fill="#333" d="M30-248c118-7 216 8 213 122C240-48 200 0 122 0H30v-248zM63-27c89 8 146-16 146-99s-60-101-146-95v194" id="aC"/><g id="w"><use transform="matrix(0.06172839506172839,0,0,0.06172839506172839,0,0)" xlink:href="#X"/><use transform="matrix(0.06172839506172839,0,0,0.06172839506172839,7.345679012345679,0)" xlink:href="#Y"/><use transform="matrix(0.06172839506172839,0,0,0.06172839506172839,25.80246913580247,0)" xlink:href="#aC"/><use transform="matrix(0.06172839506172839,0,0,0.06172839506172839,41.79012345679012,0)" xlink:href="#aa"/></g><path fill="#333" d="M128 0H69L1-190h53L99-40l48-150h52" id="aD"/><g id="x"><use transform="matrix(0.06172839506172839,0,0,0.06172839506172839,0,0)" xlink:href="#at"/><use transform="matrix(0.06172839506172839,0,0,0.06172839506172839,14.814814814814813,0)" xlink:href="#I"/><use transform="matrix(0.06172839506172839,0,0,0.06172839506172839,27.160493827160494,0)" xlink:href="#ad"/><use transform="matrix(0.06172839506172839,0,0,0.06172839506172839,39.50617283950617,0)" xlink:href="#ad"/><use transform="matrix(0.06172839506172839,0,0,0.06172839506172839,51.85185185185185,0)" xlink:href="#T"/><use transform="matrix(0.06172839506172839,0,0,0.06172839506172839,58.02469135802469,0)" xlink:href="#aD"/><use transform="matrix(0.06172839506172839,0,0,0.06172839506172839,70.37037037037037,0)" xlink:href="#Q"/></g><g id="y"><use transform="matrix(0.06172839506172839,0,0,0.06172839506172839,0,0)" xlink:href="#H"/><use transform="matrix(0.06172839506172839,0,0,0.06172839506172839,18.456790123456788,0)" xlink:href="#I"/><use transform="matrix(0.06172839506172839,0,0,0.06172839506172839,30.80246913580247,0)" xlink:href="#J"/><use transform="matrix(0.06172839506172839,0,0,0.06172839506172839,38.148148148148145,0)" xlink:href="#K"/><use transform="matrix(0.06172839506172839,0,0,0.06172839506172839,50.49382716049382,0)" xlink:href="#L"/><use transform="matrix(0.06172839506172839,0,0,0.06172839506172839,64.01234567901234,0)" xlink:href="#T"/><use transform="matrix(0.06172839506172839,0,0,0.06172839506172839,70.18518518518518,0)" xlink:href="#U"/><use transform="matrix(0.06172839506172839,0,0,0.06172839506172839,83.7037037037037,0)" xlink:href="#V"/></g><g id="z"><use transform="matrix(0.06172839506172839,0,0,0.06172839506172839,0,0)" xlink:href="#W"/><use transform="matrix(0.06172839506172839,0,0,0.06172839506172839,14.814814814814813,0)" xlink:href="#U"/><use transform="matrix(0.06172839506172839,0,0,0.06172839506172839,28.33333333333333,0)" xlink:href="#V"/><use transform="matrix(0.06172839506172839,0,0,0.06172839506172839,41.85185185185185,0)" xlink:href="#T"/><use transform="matrix(0.06172839506172839,0,0,0.06172839506172839,48.02469135802469,0)" xlink:href="#U"/><use transform="matrix(0.06172839506172839,0,0,0.06172839506172839,61.54320987654321,0)" xlink:href="#Q"/></g><g id="A"><use transform="matrix(0.06172839506172839,0,0,0.06172839506172839,0,0)" xlink:href="#X"/><use transform="matrix(0.06172839506172839,0,0,0.06172839506172839,7.345679012345679,0)" xlink:href="#az"/><use transform="matrix(0.06172839506172839,0,0,0.06172839506172839,22.160493827160494,0)" xlink:href="#Y"/><use transform="matrix(0.06172839506172839,0,0,0.06172839506172839,40.61728395061728,0)" xlink:href="#Z"/><use transform="matrix(0.06172839506172839,0,0,0.06172839506172839,55.43209876543209,0)" xlink:href="#aa"/></g><path fill="#333" d="M135-194c53 0 70 44 70 98 0 56-19 98-73 100-31 1-45-17-59-34 3 33 2 69 2 105H25l-1-265h48c2 10 0 23 3 31 11-24 29-35 60-35zM114-30c33 0 39-31 40-66 0-38-9-64-40-64-56 0-55 130 0 130" id="aE"/><g id="B"><use transform="matrix(0.06172839506172839,0,0,0.06172839506172839,0,0)" xlink:href="#ax"/><use transform="matrix(0.06172839506172839,0,0,0.06172839506172839,15.987654320987653,0)" xlink:href="#S"/><use transform="matrix(0.06172839506172839,0,0,0.06172839506172839,24.629629629629626,0)" xlink:href="#N"/><use transform="matrix(0.06172839506172839,0,0,0.06172839506172839,38.148148148148145,0)" xlink:href="#aE"/></g><g id="C"><use transform="matrix(0.06172839506172839,0,0,0.06172839506172839,0,0)" xlink:href="#X"/><use transform="matrix(0.06172839506172839,0,0,0.06172839506172839,7.345679012345679,0)" xlink:href="#aC"/><use transform="matrix(0.06172839506172839,0,0,0.06172839506172839,23.333333333333332,0)" xlink:href="#aa"/></g><g id="D"><use transform="matrix(0.06172839506172839,0,0,0.06172839506172839,0,0)" xlink:href="#ae"/><use transform="matrix(0.06172839506172839,0,0,0.06172839506172839,15.987654320987653,0)" xlink:href="#af"/><use transform="matrix(0.06172839506172839,0,0,0.06172839506172839,20.864197530864196,0)" xlink:href="#ag"/><use transform="matrix(0.06172839506172839,0,0,0.06172839506172839,25.74074074074074,0)" xlink:href="#ah"/><use transform="matrix(0.06172839506172839,0,0,0.06172839506172839,38.08641975308642,0)" xlink:href="#ai"/><use transform="matrix(0.06172839506172839,0,0,0.06172839506172839,50.432098765432094,0)" xlink:href="#aj"/></g><g id="E"><use transform="matrix(0.06172839506172839,0,0,0.06172839506172839,0,0)" xlink:href="#at"/><use transform="matrix(0.06172839506172839,0,0,0.06172839506172839,14.814814814814813,0)" xlink:href="#Q"/><use transform="matrix(0.06172839506172839,0,0,0.06172839506172839,27.160493827160494,0)" xlink:href="#S"/><use transform="matrix(0.06172839506172839,0,0,0.06172839506172839,35.80246913580247,0)" xlink:href="#ad"/><use transform="matrix(0.06172839506172839,0,0,0.06172839506172839,48.148148148148145,0)" xlink:href="#T"/><use transform="matrix(0.06172839506172839,0,0,0.06172839506172839,54.32098765432099,0)" xlink:href="#ad"/><use transform="matrix(0.06172839506172839,0,0,0.06172839506172839,66.66666666666667,0)" xlink:href="#J"/><use transform="matrix(0.06172839506172839,0,0,0.06172839506172839,74.01234567901236,0)" xlink:href="#Q"/><use transform="matrix(0.06172839506172839,0,0,0.06172839506172839,86.35802469135804,0)" xlink:href="#S"/></g><g id="F"><use transform="matrix(0.06172839506172839,0,0,0.06172839506172839,0,0)" xlink:href="#X"/><use transform="matrix(0.06172839506172839,0,0,0.06172839506172839,7.345679012345679,0)" xlink:href="#az"/><use transform="matrix(0.06172839506172839,0,0,0.06172839506172839,22.160493827160494,0)" xlink:href="#aa"/></g><path fill="#333" d="M169-182c-1-43-94-46-97-3 18 66 151 10 154 114 3 95-165 93-204 36-6-8-10-19-12-30l50-8c3 46 112 56 116 5-17-69-150-10-154-114-4-87 153-88 188-35 5 8 8 18 10 28" id="aF"/><path fill="#333" d="M140-251c80 0 125 45 125 126 0 70-33 111-92 124 6 28 34 38 68 31l-1 36C177 83 129 55 120 2 51-6 15-50 15-125c0-81 44-126 125-126zm-1 214c52 0 73-35 73-88 0-50-21-86-72-86-52 0-73 35-73 86s22 88 72 88" id="aG"/><path fill="#333" d="M24 0v-248h52v208h133V0H24" id="aH"/><g id="G"><use transform="matrix(0.04320987654320986,0,0,0.04320987654320986,0,0)" xlink:href="#at"/><use transform="matrix(0.04320987654320986,0,0,0.04320987654320986,10.370370370370367,0)" xlink:href="#N"/><use transform="matrix(0.04320987654320986,0,0,0.04320987654320986,19.83333333333333,0)" xlink:href="#ad"/><use transform="matrix(0.04320987654320986,0,0,0.04320987654320986,28.475308641975303,0)" xlink:href="#J"/><use transform="matrix(0.04320987654320986,0,0,0.04320987654320986,33.61728395061728,0)" xlink:href="#V"/><use transform="matrix(0.04320987654320986,0,0,0.04320987654320986,43.08024691358024,0)" xlink:href="#S"/><use transform="matrix(0.04320987654320986,0,0,0.04320987654320986,49.12962962962962,0)" xlink:href="#Q"/><use transform="matrix(0.04320987654320986,0,0,0.04320987654320986,57.771604938271594,0)" xlink:href="#aF"/><use transform="matrix(0.04320987654320986,0,0,0.04320987654320986,68.14197530864196,0)" xlink:href="#aG"/><use transform="matrix(0.04320987654320986,0,0,0.04320987654320986,80.24074074074072,0)" xlink:href="#aH"/></g></defs></g></svg>