<svg id="Layer_1" data-name="Layer 1" xmlns="http://www.w3.org/2000/svg" viewBox="0 0 363.14 79.38"><defs><style>.cls-1{fill:#e64c3c;}.cls-2{fill:#121212;}</style></defs><title>matchbook</title><path class="cls-1" d="M36.13,56.72a4.43,4.43,0,0,0,2.4-2.18A4.86,4.86,0,0,0,39,51.6l-.54-3.54a4.68,4.68,0,0,0-6.06-3.87l-1.24.46a4.74,4.74,0,0,0-2.26,6.88l1.81,3.08a4.84,4.84,0,0,0,2.18,2A4.3,4.3,0,0,0,36.13,56.72Z" transform="translate(-24.18 -19.04)"/><path class="cls-1" d="M39.9,57.71a7.33,7.33,0,0,1-2.72,1.79,7.25,7.25,0,0,1-2.5.45,6.2,6.2,0,0,1-.86-.05L46.71,96.31a3.15,3.15,0,0,0,4,1.92l.12,0a3.2,3.2,0,0,0,1.9-4.1Z" transform="translate(-24.18 -19.04)"/><path class="cls-1" d="M30.13,41.86l1.25-.47c.23-.08.45-.15.68-.21A7,7,0,0,1,33.83,41a7.68,7.68,0,0,1,6.41,3.61c0-2.5,0-11.51-3.2-15.6A11.42,11.42,0,0,1,35,19C19.54,21.42,25.19,50,25.19,50l.11,0a7.75,7.75,0,0,1,.42-3.66,7.39,7.39,0,0,1,3-3.75A6.89,6.89,0,0,1,30.13,41.86Z" transform="translate(-24.18 -19.04)"/><path class="cls-2" d="M73.84,79.83l7.62-38.91L93.88,69.05l12.87-28.13,6.84,38.91H108L104.5,58,93.79,81.49,83.38,58,79.49,79.83Z" transform="translate(-24.18 -19.04)"/><path class="cls-2" d="M142.52,71H127l-4,8.79h-5.88L135,41.37l17.27,38.46h-6Zm-2.23-5.13L134.92,53.6,129.3,65.91Z" transform="translate(-24.18 -19.04)"/><path class="cls-2" d="M164.78,48.77V79.83h-5.46V48.77H151V43.64h22.08v5.13Z" transform="translate(-24.18 -19.04)"/><path class="cls-2" d="M203.41,45.59v6.47a15.16,15.16,0,0,0-9.8-4,12.49,12.49,0,0,0-9.4,4,13.53,13.53,0,0,0-3.84,9.75,13.19,13.19,0,0,0,3.84,9.61,12.7,12.7,0,0,0,9.42,3.92,11.6,11.6,0,0,0,4.9-.94,13.88,13.88,0,0,0,2.33-1.27,26.58,26.58,0,0,0,2.55-1.92v6.59a19.81,19.81,0,0,1-9.85,2.65,18.17,18.17,0,0,1-13.24-5.42,18,18,0,0,1-5.46-13.17,18.57,18.57,0,0,1,4.57-12.33A18.2,18.2,0,0,1,194,42.94,18.42,18.42,0,0,1,203.41,45.59Z" transform="translate(-24.18 -19.04)"/><path class="cls-2" d="M216.77,57.8h15.61V43.64h5.46V79.83h-5.46V62.93H216.77v16.9h-5.46V43.64h5.46Z" transform="translate(-24.18 -19.04)"/><path class="cls-2" d="M246.51,79.83V43.64H252a24.11,24.11,0,0,1,5.79.56,8.78,8.78,0,0,1,3.68,1.9,9.82,9.82,0,0,1,2.41,3.45,10.38,10.38,0,0,1,.91,4.22,8.54,8.54,0,0,1-3,6.58,8.77,8.77,0,0,1,4.54,3.45A10.19,10.19,0,0,1,265,76.64,9.86,9.86,0,0,1,261,79.15a23.76,23.76,0,0,1-6.17.68ZM252,59.18h1.71a6.32,6.32,0,0,0,4.47-1.35,5.24,5.24,0,0,0,1.41-4A5,5,0,0,0,258.11,50a6.06,6.06,0,0,0-4.22-1.32H252Zm0,15.52h3.37c2.47,0,4.29-.49,5.44-1.46a5,5,0,0,0,1.83-4,5.12,5.12,0,0,0-1.76-3.94q-1.71-1.57-6.11-1.57H252Z" transform="translate(-24.18 -19.04)"/><path class="cls-2" d="M272.81,61.57a17.69,17.69,0,0,1,5.6-13.12A18.41,18.41,0,0,1,291.81,43a18.92,18.92,0,0,1,18.82,18.82A17.8,17.8,0,0,1,305.06,75a19.1,19.1,0,0,1-26.11.61A17.74,17.74,0,0,1,272.81,61.57Zm5.5.07a13.11,13.11,0,0,0,4,9.87,13.35,13.35,0,0,0,18.87-.07A14,14,0,0,0,301.26,52a12.8,12.8,0,0,0-9.52-3.94A12.93,12.93,0,0,0,282.2,52,13.08,13.08,0,0,0,278.31,61.64Z" transform="translate(-24.18 -19.04)"/><path class="cls-2" d="M315.7,61.57a17.69,17.69,0,0,1,5.6-13.12A18.43,18.43,0,0,1,334.7,43a18.92,18.92,0,0,1,18.82,18.82A17.76,17.76,0,0,1,348,75a19.1,19.1,0,0,1-26.11.61A17.74,17.74,0,0,1,315.7,61.57Zm5.5.07a13.09,13.09,0,0,0,4,9.87,12.91,12.91,0,0,0,9.25,3.87,13,13,0,0,0,9.61-3.94,14,14,0,0,0,0-19.41,12.78,12.78,0,0,0-9.52-3.94A12.93,12.93,0,0,0,325.09,52,13.08,13.08,0,0,0,321.2,61.64Z" transform="translate(-24.18 -19.04)"/><path class="cls-2" d="M365.85,58.08l14.09-14.44h7.29L370.87,60l16.45,19.81H380l-13-16.1-1.13,1.12v15h-5.46V43.64h5.46Z" transform="translate(-24.18 -19.04)"/></svg>